<svg xmlns="http://www.w3.org/2000/svg" viewBox="0 0 100 100" fill="none" role="img" aria-label="AgroMarket Agro Network Symbol White">
  <!-- Reverse / White Version for Dark Backgrounds -->
  <g stroke="#FFFFFF" stroke-linecap="round" stroke-linejoin="round">
    <path d="M 22 82 L 28 50 L 50 18" stroke-width="7" />
    <path d="M 78 82 L 72 50 L 50 18" stroke-width="7" />
    <path d="M 28 50 L 72 50" stroke-width="6.5" />
    <path d="M 50 76 L 50 18" stroke-width="6" />
    <path d="M 22 82 L 50 76 L 78 82" stroke-width="5.5" />
  </g>

  <!-- Nodes with knockout center for contrast -->
  <circle cx="22" cy="82" r="7" fill="#FFFFFF" />
  <circle cx="22" cy="82" r="2.8" fill="#0F4327" />

  <circle cx="78" cy="82" r="7" fill="#FFFFFF" />
  <circle cx="78" cy="82" r="2.8" fill="#0F4327" />

  <circle cx="50" cy="76" r="6" fill="#FFFFFF" />
  <circle cx="50" cy="76" r="2.4" fill="#0F4327" />

  <circle cx="28" cy="50" r="6.5" fill="#FFFFFF" />
  <circle cx="28" cy="50" r="2.5" fill="#0F4327" />

  <circle cx="72" cy="50" r="6.5" fill="#FFFFFF" />
  <circle cx="72" cy="50" r="2.5" fill="#0F4327" />

  <circle cx="50" cy="50" r="6" fill="#FFFFFF" />
  <circle cx="50" cy="50" r="2.4" fill="#0F4327" />

  <circle cx="50" cy="18" r="8" fill="#FFFFFF" />
  <circle cx="50" cy="18" r="3.2" fill="#0F4327" />
</svg>
